Patient4_TMGait_0pt3_03_left_07_GRF.mot
version=1
nRows=45
nColumns=19
inDegrees=no
endheader
time	F1x	F1y	F1z	M1x	M1y	M1z	F2x	F2y	F2z	M2x	M2y	M2z	EC1x	EC1y	EC1z	EC2x	EC2y	EC2z
12.23	2.075	-1.2215	-2.3698	0.7513	2.7402	1.3618	-9.84	739.5191	-45.0074	287.323	51.9193	728.6838	-0.0592	0.0182	-0.0073	-0.0462	0.0165	0.9585
12.2489	1.426	-0.68289	-1.5533	0.46928	1.7974	1.0778	-11.0988	751.3791	-44.6046	291.512	51.511	739.4782	-0.0592	0.0182	-0.0073	-0.0462	0.0165	0.9585
12.2679	0.86746	-0.20987	-0.86693	0.22511	1.0012	0.85723	-12.4465	768.3356	-44	297.7945	50.9933	754.6817	-0.0592	0.0182	-0.0073	-0.0462	0.0165	0.9585
12.2868	0.43252	0.16565	-0.34509	0.032852	0.39278	0.71076	-13.7118	790.308	-43.2066	306.1857	50.3386	774.125	-0.0592	0.0182	-0.0073	-0.0462	0.0165	0.9585
12.3057	0.11984	0.43188	0.018219	-0.10444	-0.034369	0.62656	-14.7174	816.1369	-42.2826	316.2373	49.5296	796.6586	-0.0592	0.0182	-0.0073	-0.0462	0.0165	0.9585
12.3246	-0.091121	0.58458	0.25157	-0.18902	-0.31242	0.57598	-15.3435	843.4473	-41.3196	326.9879	48.5811	820.0499	-0.0592	0.0182	-0.0073	-0.0462	0.0165	0.9585
12.3436	-0.22821	0.6162	0.38799	-0.22054	-0.47922	0.51118	-15.5735	868.8685	-40.4286	337.0614	47.5544	841.2007	-0.0592	0.0182	-0.0073	-0.0462	0.0165	0.9585
12.3625	-0.31818	0.50887	0.45726	-0.19368	-0.57076	0.37061	-15.4883	888.7132	-39.7084	344.9554	46.5367	856.7696	-0.0592	0.0182	-0.0073	-0.0462	0.0165	0.9585
12.3814	-0.38027	0.23338	0.48249	-0.1007	-0.61587	0.094834	-15.1682	899.8573	-39.202	349.408	45.5756	863.9545	-0.0592	0.0182	-0.0073	-0.0462	0.0165	0.9585
12.4004	-0.42866	-0.24431	0.47802	0.068839	-0.63375	-0.37352	-14.6092	900.4662	-38.8772	349.6964	44.6316	861.135	-0.0592	0.0182	-0.0073	-0.0462	0.0165	0.9585
12.4193	-0.47179	-0.9604	0.44892	0.32536	-0.63135	-1.0849	-13.7266	890.3052	-38.6443	345.7584	43.5969	848.148	-0.0592	0.0182	-0.0073	-0.0462	0.0165	0.9585
12.4382	-0.50863	-1.9352	0.39328	0.67355	-0.60359	-2.0635	-12.3994	870.6256	-38.398	338.1359	42.3447	826.1746	-0.0592	0.0182	-0.0073	-0.0462	0.0165	0.9585
12.4571	-0.524	-3.1444	0.30435	1.102	-0.53372	-3.2885	-10.5051	843.808	-38.0465	327.8187	40.7652	797.4156	-0.0592	0.0182	-0.0073	-0.0462	0.0165	0.9585
12.4761	-0.48437	-4.4814	0.17185	1.5702	-0.39603	-4.6499	-7.9521	812.8885	-37.5317	316.0403	38.7939	764.6697	-0.0592	0.0182	-0.0073	-0.0462	0.0165	0.9585
12.495	-0.34267	-5.7152	-0.0129	1.9935	-0.16118	-5.9041	-4.7139	781.0828	-36.8414	304.0809	36.4287	730.9038	-0.0592	0.0182	-0.0073	-0.0462	0.0165	0.9585
12.5139	-0.039059	-6.4427	-0.25511	2.2281	0.19985	-6.6411	-0.84506	751.3735	-36.0102	293.0972	33.73	698.8814	-0.0592	0.0182	-0.0073	-0.0462	0.0165	0.9585
12.5329	0.49574	-6.0511	-0.55212	2.0578	0.70914	-6.2252	3.5234	726.1672	-35.1177	283.9885	30.8178	670.8609	-0.0592	0.0182	-0.0073	-0.0462	0.0165	0.9585
12.5518	1.3322	-3.6955	-0.88243	1.1843	1.3682	-3.7708	8.179	706.9686	-34.2916	277.2772	27.8794	648.3071	-0.0592	0.0182	-0.0073	-0.0462	0.0165	0.9585
12.5707	2.5254	1.6865	-1.1933	-0.76729	2.1383	1.8334	12.8295	694.1589	-33.69	273.0375	25.157	631.6888	-0.0592	0.0182	-0.0073	-0.0462	0.0165	0.9585
12.5896	4.0807	11.2762	-1.3886	-4.2138	2.9148	11.828	17.1369	686.9768	-33.4339	270.9068	22.8816	620.4566	-0.0592	0.0182	-0.0073	-0.0462	0.0165	0.9585
12.6086	5.9048	26.1743	-1.3164	-9.5385	3.4972	27.3747	20.7769	683.6821	-33.5479	270.1596	21.1983	613.1801	-0.0592	0.0182	-0.0073	-0.0462	0.0165	0.9585
12.6275	7.7401	47.0401	-0.76392	-16.9603	3.5643	49.1774	23.4846	681.8449	-33.9459	269.8204	20.1355	607.7957	-0.0592	0.0182	-0.0073	-0.0462	0.0165	0.9585
12.6464	9.1017	73.536	0.53758	-26.3361	2.6562	76.8997	25.0837	678.742	-34.4544	268.8191	19.6141	601.9534	-0.0592	0.0182	-0.0073	-0.0462	0.0165	0.9585
12.6654	9.3586	103.7563	2.8667	-36.9625	0.25383	108.5704	25.5102	671.8741	-34.8595	266.1928	19.48	593.4584	-0.0592	0.0182	-0.0073	-0.0462	0.0165	0.9585
12.6843	8.4054	134.5007	6.3785	-47.6847	-3.8393	140.8156	24.8598	659.5919	-34.9724	261.3267	19.5438	580.8028	-0.0592	0.0182	-0.0073	-0.0462	0.0165	0.9585
12.7032	6.7003	163.2039	10.7438	-57.6144	-9.1008	170.8471	23.4406	641.6058	-34.6934	254.1459	19.6129	563.6028	-0.0592	0.0182	-0.0073	-0.0462	0.0165	0.9585
12.7221	4.6844	189.6636	15.3135	-66.7274	-14.6791	198.3795	21.7161	618.9347	-34.0155	245.0876	19.5121	542.5838	-0.0592	0.0182	-0.0073	-0.0462	0.0165	0.9585
12.7411	2.6336	214.9866	19.5436	-75.4633	-19.9016	224.5666	20.1457	593.2827	-32.9736	234.8518	19.1048	519.0826	-0.0592	0.0182	-0.0073	-0.0462	0.0165	0.9585
12.76	0.70642	240.192	23.0427	-84.2154	-24.3034	250.4968	19.0176	566.3384	-31.6174	224.1213	18.33	494.4689	-0.0592	0.0182	-0.0073	-0.0462	0.0165	0.9585
12.7789	-1.0376	265.6121	25.6095	-93.1095	-27.6558	276.5775	18.3767	539.3858	-30.0436	213.4036	17.2499	469.8182	-0.0592	0.0182	-0.0073	-0.0462	0.0165	0.9585
12.7979	-2.6054	290.9059	27.2343	-102.009	-29.9561	302.5527	18.0751	513.2594	-28.4056	203.015	16.0359	445.8565	-0.0592	0.0182	-0.0073	-0.0462	0.0165	0.9585
12.8168	-4.0204	315.2423	28.0518	-110.5862	-31.3592	327.6705	17.887	488.4781	-26.8585	193.1417	14.8844	423.0572	-0.0592	0.0182	-0.0073	-0.0462	0.0165	0.9585
12.8357	-5.3563	337.5405	28.271	-118.4186	-32.114	350.9247	17.6113	465.4073	-25.5	183.9125	13.9336	401.765	-0.0592	0.0182	-0.0073	-0.0462	0.0165	0.9585
12.8546	-6.7432	356.9328	28.0808	-125.1636	-32.4657	371.5165	17.1437	444.3342	-24.3613	175.4321	13.2315	382.2467	-0.0592	0.0182	-0.0073	-0.0462	0.0165	0.9585
12.8736	-8.2564	373.1272	27.5927	-130.6935	-32.5601	389.1883	16.499	425.4089	-23.4281	167.7595	12.7467	364.6392	-0.0592	0.0182	-0.0073	-0.0462	0.0165	0.9585
12.8925	-9.8813	386.3687	26.8634	-135.086	-32.4538	404.164	15.783	408.5576	-22.6533	160.873	12.3877	348.8805	-0.0592	0.0182	-0.0073	-0.0462	0.0165	0.9585
12.9114	-11.5632	397.1984	25.9573	-138.5402	-32.1905	416.9049	15.1421	393.4205	-21.9647	154.6438	12.0362	334.6613	-0.0592	0.0182	-0.0073	-0.0462	0.0165	0.9585
12.9304	-13.2116	406.3295	24.9837	-141.3254	-31.8397	427.9974	14.7106	379.3654	-21.2811	148.8399	11.5851	321.4422	-0.0592	0.0182	-0.0073	-0.0462	0.0165	0.9585
12.9493	-14.7042	414.6179	24.0669	-143.7653	-31.4743	438.1451	14.5576	365.5928	-20.5287	143.1669	10.9628	308.5546	-0.0592	0.0182	-0.0073	-0.0462	0.0165	0.9585
12.9682	-15.9073	422.98	23.3031	-146.2085	-31.1372	448.1054	14.6749	351.3006	-19.6424	137.3297	10.1359	295.34	-0.0592	0.0182	-0.0073	-0.0462	0.0165	0.9585
12.9871	-16.6875	432.2803	22.7647	-148.9836	-30.8482	458.6027	15.0027	335.8057	-18.5675	131.0777	9.0995	281.2485	-0.0592	0.0182	-0.0073	-0.0462	0.0165	0.9585
13.0061	-16.9324	443.2176	22.5081	-152.3559	-30.6216	470.2324	15.456	318.6186	-17.2676	124.2306	7.8712	265.8981	-0.0592	0.0182	-0.0073	-0.0462	0.0165	0.9585
13.025	-16.5736	456.2535	22.5734	-156.4996	-30.4726	483.3971	15.9378	299.512	-15.7421	116.7024	6.4964	249.1227	-0.0592	0.0182	-0.0073	-0.0462	0.0165	0.9585
13.0439	-15.6133	471.6388	22.9966	-161.5067	-30.4365	498.3293	16.3395	278.5619	-14.0469	108.5163	5.0612	231.0021	-0.0592	0.0182	-0.0073	-0.0462	0.0165	0.9585
13.0629	-14.1459	489.5014	23.8323	-167.4148	-30.595	515.1835	16.5329	256.1079	-12.2907	99.7923	3.6918	211.8289	-0.0592	0.0182	-0.0073	-0.0462	0.0165	0.9585
